<svg width="60" height="60" viewBox="0 0 60 60" fill="none" xmlns="http://www.w3.org/2000/svg">
<path d="M30 46.625C29.625 46.625 29.2708 46.5733 28.9375 46.47C28.6042 46.3667 28.2917 46.21 28 46C22.7917 41.9583 18.9058 38.0208 16.3425 34.1875C13.7792 30.3542 12.4983 26.5833 12.5 22.875C12.5 19.9167 13.0317 17.3225 14.095 15.0925C15.1583 12.8625 16.5217 10.9983 18.185 9.5C19.8517 8 21.7267 6.875 23.81 6.125C25.8933 5.375 27.9567 5 30 5C32.0417 5 34.1042 5.375 36.1875 6.125C38.2708 6.875 40.1458 8 41.8125 9.5C43.4792 11 44.8442 12.865 45.9075 15.095C46.9708 17.325 47.5017 19.9183 47.5 22.875C47.5 26.5833 46.2183 30.3542 43.655 34.1875C41.0917 38.0208 37.2067 41.9583 32 46C31.75 46.2083 31.4475 46.365 31.0925 46.47C30.7375 46.575 30.3733 46.6267 30 46.625ZM30 27.5C31.375 27.5 32.5525 27.0108 33.5325 26.0325C34.5125 25.0542 35.0017 23.8767 35 22.5C35 21.125 34.51 19.9475 33.53 18.9675C32.55 17.9875 31.3733 17.4983 30 17.5C28.625 17.5 27.4475 17.99 26.4675 18.97C25.4875 19.95 24.9983 21.1267 25 22.5C25 23.875 25.49 25.0525 26.47 26.0325C27.45 27.0125 28.6267 27.5017 30 27.5ZM15 55C14.2917 55 13.6975 54.76 13.2175 54.28C12.7375 53.8 12.4983 53.2067 12.5 52.5C12.5 51.7917 12.74 51.1975 13.22 50.7175C13.7 50.2375 14.2933 49.9983 15 50H45C45.7083 50 46.3025 50.24 46.7825 50.72C47.2625 51.2 47.5017 51.7933 47.5 52.5C47.5 53.2083 47.26 53.8025 46.78 54.2825C46.3 54.7625 45.7067 55.0017 45 55H15Z" fill="#091212"/>
</svg>
