<svg width="58" height="58" viewBox="0 0 58 58" fill="none" xmlns="http://www.w3.org/2000/svg">
<g clip-path="url(#clip0_1_10141)">
<path d="M35.6183 29C35.6183 32.6483 32.6483 35.6183 29 35.6183C25.3517 35.6183 22.3817 32.6483 22.3817 29C22.3817 25.3517 25.3517 22.3817 29 22.3817C32.6483 22.3817 35.6183 25.3517 35.6183 29ZM29 7C16.8688 7 7 16.8688 7 29C7 41.1312 16.8688 51 29 51C33.444 51 37.7285 49.6763 41.3933 47.1738L41.4557 47.1298L38.4912 43.685L38.4417 43.7162C35.6268 45.5297 32.3485 46.4928 29 46.49C19.3567 46.49 11.51 38.6433 11.51 29C11.51 19.3567 19.3567 11.51 29 11.51C38.6433 11.51 46.49 19.3567 46.49 29C46.4874 30.2639 46.3491 31.5239 46.0775 32.7583C45.5257 35.0298 43.9343 35.7247 42.7408 35.633C41.5418 35.5358 40.1375 34.6797 40.1265 32.5878V29C40.1236 26.0498 38.9505 23.2212 36.8645 21.1349C34.7786 19.0487 31.9502 17.8751 29 17.8717C26.0495 17.8746 23.2206 19.048 21.1343 21.1343C19.048 23.2206 17.8746 26.0495 17.8717 29C17.8746 31.9505 19.048 34.7794 21.1343 36.8657C23.2206 38.952 26.0495 40.1254 29 40.1283C30.4664 40.1319 31.9188 39.8432 33.2723 39.2791C34.6259 38.715 35.8535 37.8869 36.8833 36.843C37.5343 37.8652 38.4344 38.7052 39.4991 39.284C40.5638 39.8629 41.7582 40.1616 42.97 40.1522C44.5723 40.1522 46.16 39.6168 47.4378 38.647C48.756 37.6442 49.7405 36.1977 50.285 34.4578C50.3712 34.1755 50.5325 33.5338 50.5325 33.5283L50.5362 33.5045C50.857 32.1112 51 30.7178 51 29C51 16.8688 41.1312 7 29 7Z" fill="#091212"/>
</g>
<defs>
<clipPath id="clip0_1_10141">
<rect width="44" height="44" fill="white" transform="translate(7 7)"/>
</clipPath>
</defs>
</svg>
