<svg width="58" height="58" viewBox="0 0 58 58" fill="none" xmlns="http://www.w3.org/2000/svg">
<path d="M9.7875 50.75C9.0625 50.75 8.45833 50.5083 7.975 50.025C7.49167 49.5417 7.25 48.9375 7.25 48.2125V38.425C7.25 37.8611 7.43125 37.3673 7.79375 36.9436C8.15625 36.5199 8.61944 36.2484 9.18333 36.1292L17.5208 34.4375C18.0847 34.3569 18.6591 34.4077 19.2439 34.5898C19.8287 34.7718 20.3016 35.0433 20.6625 35.4042L26.3417 41.0833C29.4028 39.2306 32.2021 37.0354 34.7396 34.4979C37.2771 31.9604 39.3917 29.2417 41.0833 26.3417L35.2833 20.4208C34.9208 20.0583 34.6888 19.6451 34.5873 19.1811C34.4858 18.7171 34.4762 18.2039 34.5583 17.6417L36.1292 9.18333C36.2097 8.61944 36.4715 8.15625 36.9146 7.79375C37.3576 7.43125 37.8611 7.25 38.425 7.25H48.2125C48.9375 7.25 49.5417 7.49167 50.025 7.975C50.5083 8.45833 50.75 9.0625 50.75 9.7875C50.75 14.9833 49.5916 20.0487 47.2748 24.9835C44.9581 29.9183 41.8969 34.2885 38.0915 38.0939C34.2861 41.8994 29.9159 44.9605 24.9811 47.2773C20.0463 49.594 14.9817 50.7516 9.7875 50.75Z" fill="#091212"/>
</svg>
