<svg width="50" height="50" viewBox="0 0 50 50" fill="none" xmlns="http://www.w3.org/2000/svg">
<g clip-path="url(#clip0_1_10116)">
<path d="M25 0C18.3711 0 12.0078 2.63555 7.32422 7.32227C2.63579 12.0108 0.00129871 18.3695 0 25C0 31.6277 2.63672 37.991 7.32422 42.6777C12.0078 47.3645 18.3711 50 25 50C31.6289 50 37.9922 47.3645 42.6758 42.6777C47.3633 37.991 50 31.6277 50 25C50 18.3723 47.3633 12.009 42.6758 7.32227C37.9922 2.63555 31.6289 0 25 0Z" fill="url(#paint0_linear_1_10116)"/>
<path d="M11.3192 24.7371C18.6083 21.5621 23.4676 19.4687 25.8973 18.4574C32.8426 15.5695 34.284 15.0679 35.2254 15.0509C35.4325 15.0476 35.8934 15.0988 36.1942 15.3419C36.4442 15.547 36.5145 15.8244 36.5497 16.0191C36.5809 16.2136 36.6239 16.657 36.5887 17.0031C36.2137 20.9562 34.5848 30.5492 33.7567 34.9769C33.409 36.8503 32.7176 37.4785 32.0497 37.5398C30.5965 37.6734 29.495 36.5804 28.0887 35.6589C25.8895 34.2164 24.6473 33.3187 22.5106 31.9113C20.0418 30.2847 21.6434 29.3906 23.0497 27.9296C23.4168 27.5472 29.8153 21.7289 29.9364 21.2011C29.952 21.1351 29.9676 20.889 29.8192 20.7593C29.6747 20.6292 29.4598 20.6738 29.3036 20.7089C29.0809 20.7589 25.5692 23.0824 18.7567 27.6789C17.7606 28.364 16.8583 28.698 16.0458 28.6804C15.1551 28.6613 13.4364 28.1757 12.159 27.7609C10.5965 27.2519 9.35044 26.9828 9.45981 26.1183C9.5145 25.6683 10.1356 25.2078 11.3192 24.7371Z" fill="white"/>
</g>
<defs>
<linearGradient id="paint0_linear_1_10116" x1="2500" y1="0" x2="2500" y2="5000" gradientUnits="userSpaceOnUse">
<stop stop-color="#2AABEE"/>
<stop offset="1" stop-color="#229ED9"/>
</linearGradient>
<clipPath id="clip0_1_10116">
<rect width="50" height="50" fill="white"/>
</clipPath>
</defs>
</svg>
