<svg width="50" height="50" viewBox="0 0 50 50" fill="none" xmlns="http://www.w3.org/2000/svg">
<circle cx="25" cy="25" r="25" fill="#6F3FAA"/>
<path d="M18.611 15.8211C18.3167 15.7783 18.0167 15.8375 17.7608 15.989H17.7386C17.1448 16.3373 16.6097 16.7759 16.1537 17.2921C15.7737 17.7306 15.5678 18.174 15.514 18.6015C15.4823 18.8548 15.5045 19.1113 15.5789 19.3536L15.6074 19.3694C16.0349 20.625 16.5923 21.8331 17.2731 22.9699C18.151 24.5667 19.2313 26.0434 20.4873 27.3636L20.5253 27.4175L20.5854 27.4618L20.6218 27.5046L20.6662 27.5426C21.991 28.8023 23.4712 29.8878 25.071 30.7726C26.8998 31.7685 28.0097 32.2387 28.6763 32.4351V32.4446C28.871 32.5047 29.0483 32.5316 29.2273 32.5316C29.795 32.4897 30.3323 32.2589 30.7536 31.8761C31.2682 31.4201 31.7036 30.8834 32.0424 30.2865V30.2754C32.3607 29.6737 32.253 29.1069 31.7938 28.7221C30.8715 27.9163 29.8742 27.2005 28.8156 26.5846C28.1063 26.1999 27.3858 26.4326 27.0945 26.8221L26.4723 27.6075C26.1524 27.997 25.5729 27.9431 25.5729 27.9431L25.5571 27.9526C21.233 26.8491 20.0788 22.4711 20.0788 22.4711C20.0788 22.4711 20.0249 21.8758 20.4255 21.5718L21.2045 20.9448C21.5782 20.6408 21.8378 19.922 21.4373 19.2126C20.8255 18.153 20.1111 17.156 19.3045 16.236C19.1286 16.0194 18.8819 15.872 18.6078 15.8196L18.611 15.8211ZM25.9181 13.918C25.7081 13.918 25.5068 14.0014 25.3583 14.1498C25.2098 14.2983 25.1264 14.4997 25.1264 14.7096C25.1264 14.9196 25.2098 15.121 25.3583 15.2694C25.5068 15.4179 25.7081 15.5013 25.9181 15.5013C27.9194 15.5013 29.5819 16.1552 30.8977 17.4092C31.5738 18.0948 32.101 18.9071 32.4462 19.7969C32.7929 20.6883 32.9513 21.6399 32.9101 22.5931C32.9013 22.803 32.9762 23.0079 33.1185 23.1626C33.2607 23.3173 33.4585 23.4092 33.6685 23.418C33.8785 23.4268 34.0833 23.3518 34.238 23.2096C34.3927 23.0674 34.4846 22.8695 34.4934 22.6596C34.5425 21.4871 34.3479 20.3171 33.9218 19.2237C33.4939 18.1251 32.8451 17.126 32.0155 16.2882L31.9997 16.2724C30.3673 14.7128 28.3026 13.918 25.9181 13.918Z" fill="white"/>
<path d="M25.862 16.5211C25.652 16.5211 25.4507 16.6045 25.3022 16.753C25.1537 16.9015 25.0703 17.1028 25.0703 17.3128C25.0703 17.5227 25.1537 17.7241 25.3022 17.8726C25.4507 18.021 25.652 18.1044 25.862 18.1044H25.8889C27.3329 18.2074 28.3842 18.6887 29.1205 19.4788C29.8757 20.2926 30.2668 21.3044 30.2367 22.5552C30.2319 22.7652 30.3107 22.9684 30.4557 23.1203C30.6008 23.2722 30.8002 23.3602 31.0102 23.3651C31.2202 23.3699 31.4234 23.2911 31.5753 23.1461C31.7272 23.001 31.8152 22.8016 31.8201 22.5916C31.8581 20.9497 31.3292 19.5326 30.2811 18.4021V18.3989C29.2091 17.2494 27.7382 16.6414 25.9681 16.5227L25.9411 16.5195L25.862 16.5211Z" fill="white"/>
<path d="M25.83 19.171C25.7241 19.1617 25.6173 19.1738 25.5161 19.2066C25.415 19.2394 25.3215 19.2923 25.2412 19.362C25.1609 19.4318 25.0955 19.517 25.0489 19.6126C25.0022 19.7082 24.9754 19.8122 24.9698 19.9184C24.9643 20.0247 24.9802 20.1309 25.0166 20.2308C25.0531 20.3307 25.1093 20.4223 25.1819 20.5C25.2545 20.5778 25.342 20.6401 25.4392 20.6832C25.5364 20.7264 25.6413 20.7495 25.7477 20.7512C26.4095 20.786 26.8322 20.9855 27.0982 21.2531C27.3658 21.5223 27.5653 21.9545 27.6018 22.6306C27.6037 22.7369 27.6271 22.8416 27.6704 22.9386C27.7137 23.0357 27.7761 23.123 27.8539 23.1954C27.9317 23.2678 28.0232 23.3238 28.1231 23.36C28.223 23.3963 28.3292 23.4121 28.4353 23.4064C28.5414 23.4008 28.6453 23.3739 28.7407 23.3272C28.8362 23.2806 28.9213 23.2152 28.991 23.135C29.0607 23.0548 29.1135 22.9613 29.1463 22.8603C29.1791 22.7592 29.1912 22.6526 29.1819 22.5467C29.1312 21.5967 28.8336 20.7575 28.224 20.14C27.6113 19.5225 26.7768 19.2217 25.83 19.171Z" fill="white"/>
<path fill-rule="evenodd" clip-rule="evenodd" d="M17.1891 9.77435C22.2274 8.64813 27.4522 8.64813 32.4905 9.77435L33.0272 9.8931C34.5 10.2224 35.8527 10.9535 36.935 12.0053C38.0172 13.0571 38.7867 14.3884 39.1579 15.8512C40.4367 20.8908 40.4367 26.1699 39.1579 31.2095C38.7867 32.6723 38.0172 34.0036 36.935 35.0554C35.8527 36.1072 34.5 36.8383 33.0272 37.1676L32.4889 37.2864C29.3333 37.992 26.0953 38.2579 22.867 38.0764L18.6664 41.8353C18.508 41.9771 18.3145 42.0737 18.106 42.1152C17.8975 42.1567 17.6817 42.1415 17.4812 42.0711C17.2806 42.0007 17.1026 41.8778 16.9657 41.7152C16.8288 41.5526 16.7381 41.3562 16.703 41.1465L16.0079 36.995C14.6751 36.5803 13.4708 35.8307 12.5103 34.8177C11.5498 33.8048 10.8651 32.5625 10.5217 31.2095C9.24277 26.17 9.24277 20.8908 10.5217 15.8512C10.8929 14.3884 11.6623 13.0571 12.7446 12.0053C13.8269 10.9535 15.1796 10.2224 16.6524 9.8931L17.1891 9.77435ZM31.9727 12.0908C27.2754 11.0407 22.4042 11.0407 17.7069 12.0908L17.1685 12.2111C16.1247 12.4449 15.166 12.9634 14.3991 13.7091C13.6321 14.4549 13.0869 15.3986 12.8239 16.4354C11.6422 21.0916 11.6422 25.9691 12.8239 30.6253C13.087 31.6624 13.6325 32.6062 14.3997 33.3519C15.167 34.0976 16.126 34.6161 17.1701 34.8496L17.3126 34.8813C17.5431 34.9328 17.753 35.052 17.9155 35.2234C18.078 35.3949 18.1856 35.611 18.2246 35.8439L18.6901 38.6274L21.6541 35.9753C21.7725 35.8691 21.911 35.7878 22.0614 35.7361C22.2118 35.6844 22.371 35.6635 22.5297 35.6745C25.6949 35.8991 28.8759 35.6617 31.9727 34.9699L32.5095 34.8496C33.5536 34.6161 34.5126 34.0976 35.2798 33.3519C36.0471 32.6062 36.5926 31.6624 36.8557 30.6253C38.0369 25.9703 38.0369 21.092 36.8557 16.4354C36.5926 15.3983 36.0471 14.4545 35.2798 13.7088C34.5126 12.9631 33.5536 12.4446 32.5095 12.2111L31.9727 12.0908Z" fill="white"/>
</svg>
