<svg width="50" height="50" viewBox="0 0 50 50" fill="none" xmlns="http://www.w3.org/2000/svg">
<circle cx="25" cy="25" r="25" fill="url(#paint0_linear_1_10112)"/>
<path d="M35.3646 13.7756C33.9512 12.3093 32.2677 11.1467 30.4122 10.3556C28.5567 9.56458 26.5665 9.16088 24.5575 9.16806C16.14 9.16806 9.27958 16.2139 9.27958 24.8589C9.27958 27.6297 9.98875 30.3214 11.3146 32.6964L9.15625 40.8347L17.25 38.6497C19.4854 39.9006 21.9983 40.5656 24.5575 40.5656C32.975 40.5656 39.8354 33.5197 39.8354 24.8747C39.8354 20.6789 38.2475 16.7364 35.3646 13.7756ZM24.5575 37.9056C22.2758 37.9056 20.0404 37.2722 18.0825 36.0847L17.62 35.7997L12.81 37.0981L14.0896 32.2847L13.7813 31.7939C12.5136 29.7149 11.8405 27.3119 11.8387 24.8589C11.8387 17.6706 17.5429 11.8122 24.5421 11.8122C27.9337 11.8122 31.125 13.1739 33.5146 15.6439C34.6978 16.8535 35.6355 18.2923 36.2732 19.8768C36.911 21.4614 37.2362 23.1602 37.23 24.8747C37.2608 32.0631 31.5567 37.9056 24.5575 37.9056ZM31.5258 28.1522C31.1404 27.9622 29.2596 27.0122 28.9204 26.8697C28.5658 26.7431 28.3192 26.6797 28.0571 27.0597C27.795 27.4556 27.0704 28.3422 26.8546 28.5956C26.6387 28.8647 26.4075 28.8964 26.0221 28.6906C25.6367 28.5006 24.4033 28.0731 22.9542 26.7431C21.8133 25.6981 21.0579 24.4156 20.8267 24.0197C20.6108 23.6239 20.7958 23.4181 20.9962 23.2122C21.1658 23.0381 21.3817 22.7531 21.5667 22.5314C21.7517 22.3097 21.8287 22.1356 21.9521 21.8822C22.0754 21.6131 22.0137 21.3914 21.9212 21.2014C21.8287 21.0114 21.0579 19.0797 20.7496 18.2881C20.4412 17.5281 20.1175 17.6231 19.8862 17.6072H19.1462C18.8842 17.6072 18.4833 17.7022 18.1287 18.0981C17.7896 18.4939 16.8029 19.4439 16.8029 21.3756C16.8029 23.3072 18.175 25.1756 18.36 25.4289C18.545 25.6981 21.0579 29.6564 24.8812 31.3506C25.7908 31.7622 26.5 31.9997 27.055 32.1739C27.9646 32.4747 28.7971 32.4272 29.46 32.3322C30.2 32.2214 31.7262 31.3822 32.0346 30.4639C32.3583 29.5456 32.3583 28.7697 32.2504 28.5956C32.1425 28.4214 31.9112 28.3422 31.5258 28.1522Z" fill="white"/>
<defs>
<linearGradient id="paint0_linear_1_10112" x1="50" y1="25" x2="-1.43424e-06" y2="25" gradientUnits="userSpaceOnUse">
<stop stop-color="#2FB740"/>
<stop offset="1" stop-color="#5BCE6E"/>
</linearGradient>
</defs>
</svg>
