<svg width="60" height="61" viewBox="0 0 60 61" fill="none" xmlns="http://www.w3.org/2000/svg">
<path d="M6.08108 20.5135H2C1.44772 20.5135 1 20.0658 1 19.5135V15.4383C1 15.0477 1.22751 14.6928 1.5825 14.5297L24.0825 4.19182C24.3475 4.07006 24.6525 4.07006 24.9175 4.19182L47.4175 14.5297C47.7725 14.6928 48 15.0477 48 15.4383V19.5135C48 20.0658 47.5523 20.5135 47 20.5135H42.2838M6.08108 20.5135V40.2027M6.08108 20.5135H13.0676M4.17568 45.2838H2C1.44772 45.2838 1 45.7315 1 46.2838V50C1 50.5523 1.44772 51 2 51H47C47.5523 51 48 50.5523 48 50V46.2838C48 45.7315 47.5523 45.2838 47 45.2838H44.1892M4.17568 45.2838V41.2027C4.17568 40.6504 4.62339 40.2027 5.17568 40.2027H13.0676M4.17568 45.2838H44.1892M44.1892 45.2838V41.2027C44.1892 40.6504 43.7415 40.2027 43.1892 40.2027H42.2838M42.2838 20.5135V40.2027M42.2838 20.5135H35.2973M42.2838 40.2027H35.2973M35.2973 20.5135V40.2027M35.2973 20.5135H27.6757M35.2973 40.2027H27.6757M27.6757 20.5135V40.2027M27.6757 20.5135H20.0541M27.6757 40.2027H20.0541M20.0541 20.5135V40.2027M20.0541 20.5135H13.0676M20.0541 40.2027H13.0676M13.0676 20.5135V40.2027" stroke="#091212" stroke-width="2" stroke-linecap="round" stroke-linejoin="round"/>
<path d="M42.9948 58.1654C50.8188 58.1654 57.1615 51.8227 57.1615 43.9987C57.1615 36.1747 50.8188 29.832 42.9948 29.832C35.1708 29.832 28.8281 36.1747 28.8281 43.9987C28.8281 51.8227 35.1708 58.1654 42.9948 58.1654Z" fill="#EFEFEF"/>
<path d="M36.447 44.7851L35.6508 45.4892C35.7457 45.5961 35.8611 45.6829 35.9903 45.7442C36.1195 45.8055 36.2597 45.84 36.4026 45.8459C36.5454 45.8517 36.688 45.8286 36.8217 45.778C36.9554 45.7274 37.0776 45.6504 37.1808 45.5515L36.447 44.7851ZM39.4801 43.3472C39.6741 43.1501 39.7836 42.8852 39.7854 42.6086C39.7872 42.3321 39.6811 42.0657 39.4897 41.8662C39.2982 41.6666 39.0365 41.5496 38.7601 41.5399C38.4838 41.5302 38.2145 41.6287 38.0096 41.8143L39.4801 43.3472ZM35.2896 41.8767C35.1989 41.7663 35.0869 41.6754 34.9602 41.6093C34.8336 41.5432 34.6949 41.5034 34.5525 41.4921C34.4101 41.4809 34.2669 41.4984 34.1315 41.5438C33.996 41.5891 33.8711 41.6613 33.7642 41.756C33.6573 41.8507 33.5705 41.966 33.5092 42.095C33.4479 42.224 33.4132 42.3641 33.4072 42.5068C33.4012 42.6495 33.424 42.792 33.4744 42.9256C33.5247 43.0593 33.6015 43.1815 33.7001 43.2848L35.2896 41.8767ZM47.1471 39.7602C47.2418 39.8627 47.3557 39.9455 47.4824 40.004C47.6091 40.0625 47.7461 40.0954 47.8856 40.1009C48.025 40.1064 48.1642 40.0844 48.2951 40.0362C48.4261 39.9879 48.5462 39.9144 48.6487 39.8197C48.7512 39.725 48.8341 39.611 48.8926 39.4843C48.951 39.3576 48.984 39.2206 48.9895 39.0811C48.995 38.9417 48.973 38.8025 48.9248 38.6716C48.8765 38.5407 48.8029 38.4205 48.7082 38.318L47.1485 39.7602H47.1471ZM43.0586 35.8516C38.8284 35.8516 35.3859 39.2558 35.3859 43.4732H37.5109C37.5109 40.4458 39.9858 37.9766 43.0586 37.9766V35.8516ZM35.3859 43.4732V44.7851H37.5109V43.4732H35.3859ZM37.1837 45.5515L39.4815 43.3472L38.011 41.8143L35.7132 44.0172L37.1837 45.5515ZM37.2432 44.0796L35.2896 41.8767L33.7001 43.2848L35.6508 45.4892L37.2432 44.0796ZM48.7082 38.318C47.9877 37.5385 47.1148 36.9169 46.1419 36.4923C45.169 36.0678 44.1186 35.8496 43.0572 35.8516V37.9766C43.8257 37.9747 44.5863 38.1324 45.2908 38.4396C45.9953 38.7469 46.6284 39.197 47.1499 39.7616L48.7082 38.3166V38.318ZM49.5384 43.2097L50.3317 42.5042C50.2368 42.3974 50.1212 42.3107 49.992 42.2496C49.8628 42.1884 49.7226 42.1539 49.5797 42.1483C49.4368 42.1426 49.2943 42.1658 49.1606 42.2165C49.027 42.2672 48.9049 42.3443 48.8017 42.4433L49.5384 43.2097ZM46.5082 44.6462C46.3049 44.8416 46.1876 45.1097 46.182 45.3916C46.1764 45.6735 46.283 45.9461 46.4784 46.1493C46.6738 46.3526 46.9419 46.4699 47.2238 46.4755C47.5057 46.4811 47.7782 46.3745 47.9815 46.1791L46.5082 44.6462ZM50.7015 46.1196C50.891 46.3214 51.1519 46.4413 51.4285 46.4537C51.7051 46.4661 51.9757 46.37 52.1825 46.1859C52.3893 46.0018 52.5161 45.7442 52.5358 45.468C52.5556 45.1918 52.4667 44.9188 52.2882 44.7072L50.7015 46.1182V46.1196ZM38.8114 48.2545C38.6175 48.0538 38.3524 47.9374 38.0734 47.9305C37.7944 47.9236 37.5239 48.0267 37.3204 48.2177C37.1168 48.4086 36.9965 48.6719 36.9855 48.9508C36.9745 49.2296 37.0737 49.5016 37.2616 49.708L38.8114 48.2545ZM42.9027 52.1432C47.1428 52.1432 50.6009 48.7432 50.6009 44.5216H48.4759C48.4759 47.5462 45.9925 50.0182 42.9027 50.0182V52.1432ZM50.6009 44.5216V43.2097H48.4759V44.5216H50.6009ZM48.8017 42.4433L46.5082 44.6462L47.9815 46.1791L50.2737 43.9762L48.8017 42.4433ZM48.7451 43.9167L50.7001 46.1182L52.2896 44.7072L50.3317 42.5042L48.7451 43.9167ZM37.2602 49.7066C37.9835 50.4772 38.8575 51.091 39.8279 51.5099C40.7983 51.9288 41.8444 52.1439 42.9013 52.1418V50.0168C41.2821 50.0168 39.8272 49.3368 38.81 48.2531L37.2616 49.708L37.2602 49.7066Z" fill="#091212"/>
<circle cx="24.5" cy="13.5" r="3.5" stroke="#091212" stroke-width="2" stroke-linecap="round" stroke-linejoin="round"/>
</svg>
