<svg width="60" height="61" viewBox="0 0 60 61" fill="none" xmlns="http://www.w3.org/2000/svg">
<circle cx="24.2333" cy="24.2333" r="22.2333" stroke="#091212" stroke-width="2" stroke-linecap="round" stroke-linejoin="round"/>
<circle cx="24.2339" cy="24.2339" r="18.3667" stroke="#091212" stroke-width="2" stroke-linecap="round" stroke-linejoin="round"/>
<path d="M13.6016 24.3423L15.9645 21.9555M34.8682 24.3423L32.5053 21.9555M15.9645 21.9555L24.2349 13.6016L32.5053 21.9555M15.9645 21.9555V32.9349H22.1082V27.2065H26.1253V32.9349H32.5053V21.9555" stroke="#091212" stroke-width="2" stroke-linecap="round" stroke-linejoin="round"/>
<path d="M47.4375 13.6016L55.9442 22.3016M58.0708 24.4766L55.9442 22.3016M55.9442 22.3016V32.9349H50.5094V26.6516" stroke="#091212" stroke-width="2" stroke-linecap="round" stroke-linejoin="round"/>
<path d="M37.1719 42.8828L51.4385 57.1494C53.0135 58.7244 55.567 58.7244 57.142 57.1494V57.1494C58.717 55.5744 58.717 53.0209 57.142 51.4459L42.8754 37.1793" stroke="#091212" stroke-width="2" stroke-linecap="round" stroke-linejoin="round"/>
</svg>
