<svg width="60" height="60" viewBox="0 0 60 60" fill="none" xmlns="http://www.w3.org/2000/svg">
<path d="M2 59L58.0667 2.87097" stroke="#091212" stroke-width="2" stroke-linecap="round" stroke-linejoin="round"/>
<path d="M21.8297 46V59H32.9612V56.8412H42.6717V59H54.04V41.2498M35.3296 53.483V41.2498H40.7769V53.483M58.0663 40.7701L43 25.7037M42.6717 12.5V6.75682H35.3296V3.15881H27.7507V1H21.8297V3.15881H14.2508V6.75682H6.67188V49M11.8113 43V34.2097M38.8822 16.5V10.8346L29.5658 10.8346M29.5658 10.8346V23.9793M29.5658 10.8346L27.7507 10.8346L20.6885 10.8346M26.7624 26.7258L11.8113 26.7258M20.6885 10.8346L20.6885 34.2097L11.8113 34.2097M20.6885 10.8346L16.1455 10.8346L11.8113 10.8346L11.8113 18.7742M11.8113 18.7742L34.7052 18.7742M11.8113 18.7742L11.8113 26.7258M11.8113 26.7258L11.8113 34.2097M44.5664 41.2498V49.4053H50.4874V41.2498H44.5664ZM31.3033 41.2498H25.6191V49.4053H31.3033V41.2498Z" stroke="#091212" stroke-width="2" stroke-linecap="round" stroke-linejoin="round"/>
</svg>
