<svg width="61" height="60" viewBox="0 0 61 60" fill="none" xmlns="http://www.w3.org/2000/svg">
<path d="M46 11V5C46 2.79086 44.2091 1 42 1H5C2.79086 1 1 2.79086 1 5L1 51.7396C1 54.0926 2.90743 56 5.26035 56V56C7.61328 56 9.52071 54.0926 9.52071 51.7396V15.2396C9.52071 12.8982 11.4189 11 13.7604 11V11C16.1018 11 18 12.8982 18 15.2396V18" stroke="white" stroke-width="2" stroke-linecap="round" stroke-linejoin="round"/>
<path d="M39.3642 52.76V57C39.3642 58.1046 40.2596 59 41.3642 59H45.6763M39.3642 52.76L49.8035 42.44M39.3642 52.76L42.5202 55.88M45.6763 59L56.1156 48.68M45.6763 59L42.5202 55.88M49.8035 42.44L52.2818 39.99C53.0609 39.2198 54.3148 39.2197 55.0939 39.99L58.5612 43.4177C59.3532 44.2005 59.3532 45.4795 58.5612 46.2623L56.1156 48.68M49.8035 42.44L52.9595 45.56M56.1156 48.68L52.9595 45.56M42.5202 55.88L52.9595 45.56M33.5 59H22C19.7909 59 18 57.2091 18 55V18M58.7861 35.96V15C58.7861 12.7909 56.9953 11 54.7861 11H25M25.2832 47.48H37.5M25.2832 41.72H35.7225M39.3642 41.72H43.5M27.4682 27.32L29.6532 25.208M49.3179 27.32L47.1329 25.208M29.6532 25.208L37.0031 18.1036C37.7783 17.3543 39.0079 17.3543 39.7831 18.1036L47.1329 25.208M29.6532 25.208V34.96C29.6532 35.5123 30.1009 35.96 30.6532 35.96H35.4509C36.0032 35.96 36.4509 35.5123 36.4509 34.96V30.96C36.4509 30.4077 36.8986 29.96 37.4509 29.96H39.578C40.1303 29.96 40.578 30.4077 40.578 30.96V34.96C40.578 35.5123 41.0258 35.96 41.578 35.96H46.1329C46.6852 35.96 47.1329 35.5123 47.1329 34.96V25.208" stroke="white" stroke-width="2" stroke-linecap="round" stroke-linejoin="round"/>
</svg>
