<svg width="60" height="60" viewBox="0 0 60 60" fill="none" xmlns="http://www.w3.org/2000/svg">
<path d="M47.0838 50.0014L56.2234 40.9382C57.3596 39.8116 57.9986 38.2778 57.9986 36.6778V22.8517C57.9986 21.0826 56.5645 19.6484 54.7954 19.6484V19.6484C53.0263 19.6484 51.5921 21.0826 51.5921 22.8517V30.0014M38.779 53.5308V42.472L47.4547 33.8689C48.4316 32.9001 50.007 32.9001 50.984 33.8689V33.8689C51.9726 34.8493 51.9726 36.4476 50.984 37.428L45.8974 42.472M38.779 53.5308H51.5921V58.0014M38.779 53.5308H36.4062V58.0014" stroke="#091212" stroke-width="2" stroke-linecap="round" stroke-linejoin="round"/>
<path d="M12.9162 50.0014L3.77659 40.9382C2.64045 39.8116 2.00137 38.2778 2.00137 36.6778V22.8517C2.00137 21.0826 3.43552 19.6484 5.20463 19.6484V19.6484C6.97375 19.6484 8.4079 21.0826 8.4079 22.8517V30.0014M21.221 53.5308V42.472L12.5453 33.8689C11.5684 32.9001 9.99302 32.9001 9.01605 33.8689V33.8689C8.0274 34.8493 8.0274 36.4476 9.01605 37.428L14.1026 42.472M21.221 53.5308H8.4079V58.0014M21.221 53.5308H23.5938V58.0014" stroke="#091212" stroke-width="2" stroke-linecap="round" stroke-linejoin="round"/>
<path d="M44.232 32.5882V21.2941M36.6391 4.58823H46.8421V19.4118L29.9952 2.70588L13.1484 19.4118V4.58823H19.555V2H23.3514V4.58823M15.9958 21.2941V32.5882M26.3656 32.5882H34.1958V19.4118H26.3656V32.5882Z" stroke="#091212" stroke-width="2" stroke-linecap="round" stroke-linejoin="round"/>
</svg>
