<svg width="60" height="60" viewBox="0 0 60 60" fill="none" xmlns="http://www.w3.org/2000/svg">
<path d="M2 59H3.93708M59 59C59 59 57.7713 59 56.8887 59M56.8887 59C56.8887 40.1457 56.8887 10.7207 56.8887 10.7207L30.7357 1L3.93708 10.7207V59M56.8887 59C53.6106 59 49.4608 59 49.4608 59M3.93708 59H11.0421M11.0421 59H49.4608M11.0421 59V34.3743M49.4608 59V34.3743M49.4608 25.6257V17.2011H11.0421V25.6257M49.4608 25.6257H11.0421M49.4608 25.6257V34.3743M11.0421 25.6257V34.3743M49.4608 34.3743H11.0421" stroke="#091212" stroke-width="2" stroke-linecap="round" stroke-linejoin="round"/>
</svg>
