<svg width="62" height="60" viewBox="0 0 62 60" fill="none" xmlns="http://www.w3.org/2000/svg">
<path d="M45.25 58.987H46.25C46.25 58.4783 45.8681 58.0507 45.3627 57.9934L45.25 58.987ZM45.2571 54.5719L45.3666 55.5659C45.8943 55.5078 46.2847 55.0474 46.2556 54.5173L45.2571 54.5719ZM54.3694 52.8852L53.4162 53.1877C53.517 53.5052 53.7692 53.7517 54.0889 53.8451C54.4086 53.9385 54.7539 53.8666 55.0097 53.6533L54.3694 52.8852ZM57.0466 58.967L56.9075 57.9767C56.4138 58.0461 56.0466 58.4685 56.0466 58.967H57.0466ZM57.0466 59.0008V60.0008C57.5989 60.0008 58.0466 59.5531 58.0466 59.0008H57.0466ZM45.5424 59.0008V58.0008C45.5362 58.0008 45.5301 58.0008 45.5239 58.0009L45.5424 59.0008ZM45.4595 59.0008L45.4779 58.0009C45.4718 58.0008 45.4656 58.0008 45.4595 58.0008V59.0008ZM45.25 59.0008H44.25C44.25 59.5531 44.6977 60.0008 45.25 60.0008V59.0008ZM45.3627 57.9934C44.7623 57.9253 44.2891 57.4104 44.2891 56.7799H42.2891C42.2891 58.4325 43.5308 59.7985 45.1373 59.9806L45.3627 57.9934ZM44.2891 56.7799C44.2891 56.148 44.7644 55.6322 45.3666 55.5659L45.1477 53.5779C43.5362 53.7554 42.2891 55.1237 42.2891 56.7799H44.2891ZM46.2556 54.5173C46.2519 54.4489 46.25 54.38 46.25 54.3105H44.25C44.25 54.4164 44.2529 54.5218 44.2586 54.6266L46.2556 54.5173ZM46.25 54.3105C46.25 52.2689 47.8969 50.6211 49.9195 50.6211V48.6211C46.7843 48.6211 44.25 51.1723 44.25 54.3105H46.25ZM49.9195 50.6211C51.553 50.6211 52.9429 51.6957 53.4162 53.1877L55.3226 52.5828C54.5947 50.2888 52.4542 48.6211 49.9195 48.6211V50.6211ZM55.0097 53.6533C55.4329 53.3006 55.9737 53.0898 56.5657 53.0898V51.0898C55.4878 51.0898 54.4977 51.4764 53.7291 52.1172L55.0097 53.6533ZM56.5657 53.0898C57.9096 53.0898 59.0064 54.1851 59.0064 55.5452H61.0064C61.0064 53.0886 59.0222 51.0898 56.5657 51.0898V53.0898ZM59.0064 55.5452C59.0064 56.7873 58.0901 57.8106 56.9075 57.9767L57.1857 59.9573C59.3483 59.6535 61.0064 57.7919 61.0064 55.5452H59.0064ZM56.0466 58.967V59.0008H58.0466V58.967H56.0466ZM57.0466 58.0008H45.5424V60.0008H57.0466V58.0008ZM45.5239 58.0009C45.5163 58.0011 45.5086 58.0011 45.5009 58.0011V60.0011C45.5209 60.0011 45.5409 60.001 45.5608 60.0006L45.5239 58.0009ZM45.5009 58.0011C45.4932 58.0011 45.4856 58.0011 45.4779 58.0009L45.441 60.0006C45.461 60.001 45.4809 60.0011 45.5009 60.0011V58.0011ZM45.4595 58.0008H45.25V60.0008H45.4595V58.0008ZM46.25 59.0008V58.987H44.25V59.0008H46.25Z" fill="#091212"/>
<path d="M16.75 58.987H15.75C15.75 58.4783 16.1319 58.0507 16.6373 57.9934L16.75 58.987ZM16.7429 54.5719L16.6334 55.5659C16.1057 55.5078 15.7153 55.0474 15.7444 54.5173L16.7429 54.5719ZM7.63058 52.8852L8.58375 53.1877C8.48301 53.5052 8.2308 53.7517 7.91108 53.8451C7.59136 53.9385 7.2461 53.8666 6.99025 53.6533L7.63058 52.8852ZM4.95339 58.967L5.09248 57.9767C5.58618 58.0461 5.95339 58.4685 5.95339 58.967H4.95339ZM4.95339 59.0008V60.0008C4.4011 60.0008 3.95339 59.5531 3.95339 59.0008H4.95339ZM16.4576 59.0008V58.0008C16.4638 58.0008 16.4699 58.0008 16.4761 58.0009L16.4576 59.0008ZM16.5405 59.0008L16.5221 58.0009C16.5282 58.0008 16.5344 58.0008 16.5405 58.0008V59.0008ZM16.75 59.0008H17.75C17.75 59.5531 17.3023 60.0008 16.75 60.0008V59.0008ZM16.6373 57.9934C17.2377 57.9253 17.7109 57.4104 17.7109 56.7799H19.7109C19.7109 58.4325 18.4692 59.7985 16.8627 59.9806L16.6373 57.9934ZM17.7109 56.7799C17.7109 56.148 17.2356 55.6322 16.6334 55.5659L16.8523 53.5779C18.4638 53.7554 19.7109 55.1237 19.7109 56.7799H17.7109ZM15.7444 54.5173C15.7481 54.4489 15.75 54.38 15.75 54.3105H17.75C17.75 54.4164 17.7471 54.5218 17.7414 54.6266L15.7444 54.5173ZM15.75 54.3105C15.75 52.2689 14.1031 50.6211 12.0805 50.6211V48.6211C15.2157 48.6211 17.75 51.1723 17.75 54.3105H15.75ZM12.0805 50.6211C10.447 50.6211 9.05715 51.6957 8.58375 53.1877L6.67741 52.5828C7.40531 50.2888 9.54581 48.6211 12.0805 48.6211V50.6211ZM6.99025 53.6533C6.56711 53.3006 6.02627 53.0898 5.43432 53.0898V51.0898C6.51223 51.0898 7.50234 51.4764 8.27092 52.1172L6.99025 53.6533ZM5.43432 53.0898C4.09037 53.0898 2.99364 54.1851 2.99364 55.5452H0.993645C0.993645 53.0886 2.9778 51.0898 5.43432 51.0898V53.0898ZM2.99364 55.5452C2.99364 56.7873 3.90992 57.8106 5.09248 57.9767L4.81429 59.9573C2.65174 59.6535 0.993645 57.7919 0.993645 55.5452H2.99364ZM5.95339 58.967V59.0008H3.95339V58.967H5.95339ZM4.95339 58.0008H16.4576V60.0008H4.95339V58.0008ZM16.4761 58.0009C16.4837 58.0011 16.4914 58.0011 16.4991 58.0011V60.0011C16.4791 60.0011 16.4591 60.001 16.4392 60.0006L16.4761 58.0009ZM16.4991 58.0011C16.5068 58.0011 16.5144 58.0011 16.5221 58.0009L16.559 60.0006C16.539 60.001 16.5191 60.0011 16.4991 60.0011V58.0011ZM16.5405 58.0008H16.75V60.0008H16.5405V58.0008ZM15.75 59.0008V58.987H17.75V59.0008H15.75Z" fill="#091212"/>
<path d="M56.0342 52.5978V35.81M40.9145 9.14703H58C59.1046 9.14703 60 10.0425 60 11.147V34.0819L31 5.19695L2 34.0819V11.147C2 10.0425 2.89543 9.14703 4 9.14703H14.1453V5.19695H11.6667V3C11.6667 1.89543 12.5621 1 13.6667 1H18.094C19.1986 1 20.094 1.89543 20.094 3V5.19695H17.8632V9.14703H21.3333M6.21367 35.81V52.1041M26.0427 54.5729V34.5756H36.2051V54.5729H26.0427Z" stroke="#091212" stroke-width="2" stroke-linecap="round" stroke-linejoin="round"/>
<path d="M49.7523 34.9766H41.9609V40.8012V46.6259H49.7523V40.8012V34.9766Z" stroke="#091212" stroke-width="2" stroke-linecap="round" stroke-linejoin="round"/>
<path d="M19.9811 34.9766H12.7891V40.8012V46.6259H19.9811V40.8012V34.9766Z" stroke="#091212" stroke-width="2" stroke-linecap="round" stroke-linejoin="round"/>
<ellipse cx="30.9995" cy="19.929" rx="3.86667" ry="3.39773" stroke="#091212" stroke-width="2" stroke-linecap="round" stroke-linejoin="round"/>
</svg>
