<svg width="25" height="25" viewBox="0 0 25 25" fill="none" xmlns="http://www.w3.org/2000/svg">
<path d="M4.21875 21.875C3.90625 21.875 3.64583 21.7708 3.4375 21.5625C3.22917 21.3542 3.125 21.0938 3.125 20.7812V16.5625C3.125 16.3194 3.20312 16.1066 3.35937 15.924C3.51562 15.7413 3.71528 15.6243 3.95833 15.5729L7.55208 14.8438C7.79514 14.809 8.04271 14.8309 8.29479 14.9094C8.54687 14.9878 8.75069 15.1049 8.90625 15.2604L11.3542 17.7083C12.6736 16.9097 13.8802 15.9635 14.974 14.8698C16.0677 13.776 16.9792 12.6042 17.7083 11.3542L15.2083 8.80208C15.0521 8.64583 14.9521 8.46771 14.9083 8.26771C14.8646 8.06771 14.8604 7.84653 14.8958 7.60417L15.5729 3.95833C15.6076 3.71528 15.7205 3.51562 15.9115 3.35937C16.1024 3.20312 16.3194 3.125 16.5625 3.125H20.7812C21.0938 3.125 21.3542 3.22917 21.5625 3.4375C21.7708 3.64583 21.875 3.90625 21.875 4.21875C21.875 6.45833 21.3757 8.64167 20.3771 10.7688C19.3785 12.8958 18.059 14.7795 16.4187 16.4198C14.7785 18.0601 12.8948 19.3795 10.7677 20.3781C8.64062 21.3767 6.45764 21.8757 4.21875 21.875Z" fill="#091212"/>
</svg>
