<svg width="22" height="22" viewBox="0 0 22 22" fill="none" xmlns="http://www.w3.org/2000/svg">
<path d="M16.6397 19.2697L16.6397 19.2697C14.9722 20.4083 13.0225 21.0106 11.0006 21.0106C5.48081 21.0106 0.990625 16.5204 0.990625 11.0006C0.990625 5.48081 5.48081 0.990625 11.0006 0.990625C16.5204 0.990625 21.0106 5.48081 21.0106 11.0006C21.0106 11.7774 20.9461 12.412 20.8002 13.0477L20.7994 13.0529L20.7991 13.0544L20.7982 13.0596L20.7973 13.0638L20.7962 13.0685L20.7936 13.0794L20.7846 13.1151C20.7772 13.1448 20.7668 13.1853 20.7553 13.2297C20.7324 13.3175 20.704 13.4239 20.6836 13.4905L20.6833 13.4915C20.431 14.2979 19.9729 14.9735 19.3549 15.4436L19.3548 15.4437C18.7562 15.898 18.0131 16.1487 17.2623 16.1488C17.2621 16.1488 17.2619 16.1488 17.2617 16.1488V15.9988C16.7186 16.0031 16.1833 15.8692 15.7061 15.6097C15.2738 15.3747 14.9021 15.0436 14.619 14.6428L16.6397 19.2697ZM16.6397 19.2697L16.6416 19.2684L16.6695 19.2486L16.8044 19.1534L16.6967 19.0282L15.3681 17.4843L15.2838 17.3864L15.1745 17.4552L15.1523 17.4692L15.151 17.47C13.9136 18.2672 12.4726 18.6906 11.0008 18.6893H11.0006C6.7615 18.6893 3.31193 15.2397 3.31193 11.0006C3.31193 6.7615 6.7615 3.31193 11.0006 3.31193C15.2396 3.31193 18.6892 6.76133 18.6893 11.0003M16.6397 19.2697L18.8393 11.0006M11.0003 16.1381C11.6774 16.1398 12.3481 16.0065 12.9731 15.746C13.542 15.5089 14.0627 15.1708 14.5102 14.7486L11.0006 15.9881M11.0003 16.1381L11.0006 15.9881M11.0003 16.1381C11.0003 16.1381 11.0004 16.1381 11.0005 16.1381L11.0006 15.9881M11.0003 16.1381C9.63824 16.1367 8.33239 15.5951 7.36929 14.632C6.40614 13.6688 5.86445 12.3629 5.86311 11.0008V11.0005C5.86445 9.63838 6.40614 8.33245 7.36929 7.36929C8.33245 6.40614 9.63838 5.86445 11.0005 5.86311H11.0008C12.3628 5.86468 13.6685 6.40646 14.6314 7.36959C15.5944 8.33272 16.136 9.63852 16.1373 11.0005V11.0006V12.6082M11.0006 15.9881C9.67825 15.9868 8.41042 15.4609 7.47536 14.5259C6.5403 13.5908 6.01441 12.323 6.01311 11.0006C6.01441 9.67825 6.5403 8.41042 7.47536 7.47536C8.41042 6.5403 9.67825 6.01441 11.0006 6.01311C12.3229 6.01463 13.5905 6.54062 14.5254 7.47565C15.4602 8.41068 15.986 9.6784 15.9873 11.0006V12.6086M16.1373 12.6082C16.1373 12.6081 16.1373 12.608 16.1373 12.6078L15.9873 12.6086M16.1373 12.6082V12.6086H15.9873M16.1373 12.6082C16.1397 13.0406 16.2846 13.3309 16.478 13.5186C16.6741 13.709 16.9309 13.8043 17.1706 13.8239M15.9873 12.6086C15.9923 13.5461 16.6216 13.9299 17.159 13.9734M11.0006 18.8393C12.5014 18.8406 13.9706 18.4089 15.2322 17.5961L15.2544 17.5822L16.4847 19.0119L16.4965 19.0035L16.583 19.1261L16.557 19.1485L16.557 19.1485L16.4693 19.2239L16.4583 19.2111C14.8373 20.2904 12.9533 20.8606 11.0006 20.8606C5.56366 20.8606 1.14062 16.4376 1.14062 11.0006C1.14062 5.56366 5.56366 1.14062 11.0006 1.14062C16.4376 1.14062 20.8606 5.56366 20.8606 11.0006C20.8606 11.7705 20.7965 12.395 20.6527 13.0195L11.0006 18.8393ZM11.0006 18.8393C6.67866 18.8393 3.16193 15.3226 3.16193 11.0006C3.16193 6.67866 6.67866 3.16193 11.0006 3.16193C15.3226 3.16193 18.8393 6.67866 18.8393 11.0006M11.0006 18.8393L18.8393 11.0006M17.159 13.9734L17.1705 13.8239C17.1705 13.8239 17.1706 13.8239 17.1706 13.8239M17.159 13.9734C17.6939 14.0145 18.4071 13.7031 18.6544 12.685M17.159 13.9734L17.1711 13.8239C17.171 13.8239 17.1708 13.8239 17.1706 13.8239M17.1706 13.8239C17.4052 13.8419 17.6814 13.7825 17.9266 13.6049C18.1699 13.4287 18.3918 13.1293 18.5083 12.6513M18.6544 12.685L18.508 12.6528C18.5081 12.6523 18.5082 12.6518 18.5083 12.6513M18.6544 12.685C18.7762 12.1318 18.8382 11.5671 18.8393 11.0006M18.6544 12.685L18.5087 12.6496C18.5086 12.6502 18.5084 12.6507 18.5083 12.6513M18.5083 12.6513C18.6275 12.109 18.6882 11.5555 18.6893 11.0003M18.8393 11.0006H18.6893C18.6893 11.0005 18.6893 11.0004 18.6893 11.0003M18.8393 11.0006L18.6893 11.0003M13.8168 11.0006C13.8168 12.5529 12.5529 13.8168 11.0006 13.8168C9.44835 13.8168 8.18441 12.5529 8.18441 11.0006C8.18441 9.44835 9.44835 8.18441 11.0006 8.18441C12.5529 8.18441 13.8168 9.44835 13.8168 11.0006Z" fill="white" stroke="#091212" stroke-width="0.3"/>
</svg>
